<svg xmlns="http://www.w3.org/2000/svg" width="296.6" height="300.114" viewBox="0 0 296.6 300.114">
  <g id="solar-energy" transform="translate(-2.997)">
    <g id="Group_2" data-name="Group 2" transform="translate(2.997)">
      <g id="Group_1" data-name="Group 1">
        <path id="Path_1" data-name="Path 1" d="M128.614,236.213h12l13.816-15.523H142.378Z" transform="translate(-54.982 -91.33)" fill="#fff"/>
        <path id="Path_2" data-name="Path 2" d="M84.476,236.213h12L110.3,220.69H98.24Z" transform="translate(-36.716 -91.33)" fill="#fff"/>
        <path id="Path_3" data-name="Path 3" d="M233.161,185.379H221.156l-9.21,10.349H224Z" transform="translate(-89.469 -76.717)" fill="#fff"/>
        <path id="Path_4" data-name="Path 4" d="M144.886,185.379h-12l-9.21,10.349h12.056Z" transform="translate(-52.937 -76.717)" fill="#fff"/>
        <path id="Path_5" data-name="Path 5" d="M172.752,236.213h12l13.816-15.523H186.516Z" transform="translate(-73.248 -91.33)" fill="#fff"/>
        <path id="Path_6" data-name="Path 6" d="M189.023,185.379h-12l-9.211,10.349h12.057Z" transform="translate(-71.202 -76.717)" fill="#fff"/>
        <path id="Path_7" data-name="Path 7" d="M3,419.148a5.191,5.191,0,0,0,5.175,5.175H147.88V300.138H3Z" transform="translate(-2.997 -124.209)" fill="#fff"/>
        <path id="Path_8" data-name="Path 8" d="M381.973,388.414h-20.7a5.191,5.191,0,0,0-5.175,5.175v67.267h31.047V393.588A5.19,5.19,0,0,0,381.973,388.414Z" transform="translate(-149.126 -160.741)" fill="#fff"/>
        <path id="Path_9" data-name="Path 9" d="M267.825,236.8V364.3h41.4V297.034a15.569,15.569,0,0,1,15.523-15.523h20.7a15.569,15.569,0,0,1,15.523,15.523V364.3h36.221a5.191,5.191,0,0,0,5.175-5.175V236.8l-67.267-81.7Z" transform="translate(-112.594 -64.187)" fill="#fff"/>
        <path id="Path_10" data-name="Path 10" d="M216.89,236.213h12L242.71,220.69H230.654Z" transform="translate(-91.515 -91.33)" fill="#fff"/>
        <path id="Path_11" data-name="Path 11" d="M256.084,195.728h12.057l9.158-10.349h-12Z" transform="translate(-107.735 -76.717)" fill="#fff"/>
        <path id="Path_12" data-name="Path 12" d="M79.22,150.069a5.134,5.134,0,0,0-3.984,1.863L12.884,227.685h141.83l63.9-77.616Zm71.458,65.507a5.074,5.074,0,0,1-3.881,1.759H43.31a5.178,5.178,0,0,1-3.881-8.59L62.61,182.667a.053.053,0,0,1,.015-.037.048.048,0,0,1,.037-.015l18.162-20.439a5.074,5.074,0,0,1,3.881-1.759H188.193a5.177,5.177,0,0,1,3.881,8.59Z" transform="translate(-7.089 -62.105)" fill="#fff"/>
        <path id="Path_13" data-name="Path 13" d="M400.754,95.079h0l-24.9-8.091a45.932,45.932,0,0,0,.032-18.754l24.873-8.081a5.174,5.174,0,1,0-3.193-9.843l-24.928,8.1A46.77,46.77,0,0,0,361.6,43.279l15.422-21.227a5.173,5.173,0,1,0-8.368-6.084l-15.407,21.2a46.156,46.156,0,0,0-17.812-5.821V5.175a5.175,5.175,0,1,0-10.349,0V31.352a46.163,46.163,0,0,0-17.812,5.821l-15.407-21.2a5.173,5.173,0,0,0-8.368,6.084l15.422,21.227a46.759,46.759,0,0,0-11.031,15.129l-24.928-8.1a5.174,5.174,0,1,0-3.193,9.843l24.873,8.082a46.526,46.526,0,0,0-.952,9.381h46.569a4.982,4.982,0,0,1,3.829,1.759c.052.052.1.052.155.1l27.01,32.806a46.873,46.873,0,0,0,11.379-15.459l24.925,8.1a5.174,5.174,0,1,0,3.194-9.843Z" transform="translate(-107.764)" fill="#fff"/>
      </g>
    </g>
  </g>
</svg>
