<svg xmlns="http://www.w3.org/2000/svg" width="242.347" height="323.121" viewBox="0 0 242.347 323.121">
  <g id="surface1" transform="translate(-0.063)">
    <path id="Path_14" data-name="Path 14" d="M40.945,230.649H88.564L70.768,74.016a13.277,13.277,0,1,0-12,0Zm0,0" transform="translate(57.611 68.944)" fill="#fff"/>
    <path id="Path_15" data-name="Path 15" d="M39.824,142.686H92.817L91.16,128.043H41.471Zm0,0" transform="translate(56.031 180.435)" fill="#fff"/>
    <path id="Path_16" data-name="Path 16" d="M55.742,71.378c15.6,10.813,63.486,40.871,108.008,37.21l.2-.48c-27.375-35.357-81.9-50.254-100.413-54.461a16.843,16.843,0,0,1,0,1.948A19.71,19.71,0,0,1,55.742,71.378Zm0,0" transform="translate(78.462 75.6)" fill="#fff"/>
    <path id="Path_17" data-name="Path 17" d="M109.84,71.378a19.464,19.464,0,0,1-7.011-18C84.158,56.772,29.048,69.364.062,103.507l.188.48C44.679,109.417,93.795,81.391,109.84,71.378Zm0,0" transform="translate(0 75.215)" fill="#fff"/>
    <path id="Path_18" data-name="Path 18" d="M59.2,111.462A19.541,19.541,0,0,1,68.85,114c3.6-18.624,12.008-74.543-9.411-114h-.508c-21.306,39.394-13.015,95.322-9.42,114A19.718,19.718,0,0,1,59.2,111.462Zm0,0" transform="translate(63.153)" fill="#fff"/>
  </g>
</svg>
